<?xml version="1.0" standalone="no"?>
<!DOCTYPE svg PUBLIC "-//W3C//DTD SVG 1.1//EN" "http://www.w3.org/Graphics/SVG/1.1/DTD/svg11.dtd" >
<svg xmlns="http://www.w3.org/2000/svg" xmlns:xlink="http://www.w3.org/1999/xlink" version="1.1">
<metadata></metadata>
<defs>
<font id="simon_sans_boldbold" horiz-adv-x="1146" >
<font-face units-per-em="2048" ascent="1638" descent="-410" />
<missing-glyph horiz-adv-x="548" />
<glyph horiz-adv-x="0" />
<glyph horiz-adv-x="0" />
<glyph horiz-adv-x="682" />
<glyph unicode="&#xd;" horiz-adv-x="1134" d="M117 16v1414q0 10 10 10h854q10 0 10 -10v-1414q0 -10 -10 -10h-854q-10 0 -10 10zM289 162h530v1122h-530v-1122z" />
<glyph unicode=" "  horiz-adv-x="548" />
<glyph unicode="&#x09;" horiz-adv-x="548" />
<glyph unicode="&#xa0;" horiz-adv-x="548" />
<glyph unicode="!" horiz-adv-x="706" d="M219 1415v2q0 12 8.5 20.5t20.5 8.5h211q16 0 22 -12q7 -7 4 -21l-75 -991q0 -12 -8.5 -20.5t-20.5 -8.5h-53q-14 0 -23.5 8.5t-9.5 20.5zM229 102q0 51 35.5 87t85.5 36q52 0 88.5 -36t36.5 -87q0 -50 -36.5 -86t-88.5 -36q-49 0 -85 36t-36 86z" />
<glyph unicode="&#x22;" horiz-adv-x="903" d="M217 1337q0 43 29.5 74t70.5 31q46 0 74 -31q29 -32 29 -74q0 -19 -20 -179.5t-27 -205.5q0 -10 -9.5 -18t-21.5 -8h-47q-12 0 -20.5 7.5t-10.5 18.5q-2 14 -14.5 110.5t-22.5 179.5t-10 95zM477 1337q0 43 31 74q28 31 72 31q41 0 70.5 -31t29.5 -74q0 -19 -20 -179.5 t-27 -205.5q0 -10 -9.5 -18t-21.5 -8h-47q-12 0 -20.5 7.5t-10.5 18.5q-2 14 -14.5 110.5t-22.5 179.5t-10 95z" />
<glyph unicode="#" horiz-adv-x="1136" d="M117 16v1414q0 10 10 10h854q10 0 10 -10v-1414q0 -10 -10 -10h-854q-10 0 -10 10zM289 162h530v1122h-530v-1122z" />
<glyph unicode="$" horiz-adv-x="1071" d="M86 373q0 10 8 10h209q6 0 12 -6q70 -166 228 -166q105 0 166 70q47 56 47 145q0 24 -6 44.5t-23.5 41.5t-32.5 36t-48.5 38.5t-54 37t-67.5 42.5q-117 73 -241 178q-107 95 -107 252q0 155 105 260q78 75 172 96v123q0 10 10 10h143q10 0 10 -10v-123q185 -32 279 -213 q5 -10 -4 -14l-156 -90q-4 -2 -12 2q-40 69 -83 96t-105 27q-63 0 -106.5 -45.5t-43.5 -106.5q0 -45 16.5 -78t57.5 -65q15 -10 38 -26t31 -21l115 -74q94 -60 176 -123q146 -109 154 -297q9 -164 -111 -293q-98 -110 -246 -131v-125q0 -10 -10 -10h-143q-10 0 -10 10v129 q-118 21 -209 100q-112 95 -158 269z" />
<glyph unicode="%" horiz-adv-x="1724" d="M154 1122q0 122 84 209q86 86 211 86q124 0 210 -86q84 -84 84 -209q0 -127 -84 -211q-87 -84 -210 -84q-124 0 -211 84q-84 87 -84 211zM244 51l1091 1454q2 3 6 4t7 -2l129 -108q6 -6 2 -15l-1092 -1456q-5 -9 -12 -2l-129 111q-6 6 -2 14zM319 1122q0 -60 33 -96 q36 -39 97 -39t94 39q35 35 35 96q0 59 -35 97t-94 38t-97 -38q-33 -39 -33 -97zM983 311q0 122 84 209q89 86 211 86q127 0 213 -86q82 -85 82 -209q0 -126 -82 -211q-84 -84 -213 -84q-124 0 -211 84q-84 87 -84 211zM1151 311q0 -56 31 -98q40 -37 96 -37q62 0 96 37 q35 38 35 98q0 59 -35 97t-96 38q-55 0 -96 -38q-31 -42 -31 -97z" />
<glyph unicode="&#x26;" horiz-adv-x="1386" d="M178 420q0 124 62 219q44 71 141 129q3 2 3.5 5t-3.5 5q-66 49 -102 111q-48 85 -48 170q0 165 113 278t285 113q173 0 286 -113q93 -93 111 -221q0 -21 -18 -24q-143 -31 -156 -31q-8 0 -14.5 5.5t-6.5 14.5q-6 75 -57 129q-52 58 -145 58q-91 0 -146 -58 q-53 -59 -53 -151q0 -91 53 -150q41 -44 107 -53q3 -1 8.5 -2t7.5 -2q9 0 15 -7t6 -16v-131q0 -9 -6 -15.5t-15 -6.5q-2 -2 -18 -2q-85 -12 -144 -68q-71 -71 -71 -186q0 -55 18.5 -100.5t36.5 -63.5l18 -18q13 -11 18 -15t24 -16.5t35.5 -18.5t44 -12t57.5 -6q93 0 148 15 t91 48q45 39 71.5 97.5t29.5 165.5h-195q-11 0 -18 7t-7 17v142q0 9 7.5 17.5t17.5 8.5h524q9 0 18 -8.5t9 -17.5v-142q0 -10 -8.5 -17t-18.5 -7h-139v-471q0 -11 -7.5 -18t-17.5 -7h-124q-10 0 -17.5 7t-7.5 18l-8 86q-127 -127 -344 -127q-189 0 -320 116 q-131 119 -131 320z" />
<glyph unicode="'" horiz-adv-x="589" d="M180 1348q0 41 29 73q31 31 74 31q44 0 74 -30t30 -74q0 -3 -47 -387q-1 -12 -11 -20.5t-22 -8.5h-47q-13 0 -22 8.5t-11 20.5q-7 41 -27 204.5t-20 182.5z" />
<glyph unicode="(" horiz-adv-x="598" d="M63 768q0 245 86.5 487.5t233.5 409.5q8 8 14 2l125 -111q7 -7 4 -14q-105 -192 -153.5 -372.5t-48.5 -401.5q0 -220 49 -401t153 -369q3 -7 -4 -14l-125 -115q-6 -6 -14 2q-147 167 -233.5 409.5t-86.5 487.5z" />
<glyph unicode=")" horiz-adv-x="598" d="M66 -2q104 188 153 369t49 401q0 221 -48.5 401.5t-153.5 372.5q-3 7 4 14l125 111q6 6 14 -2q147 -167 233 -409.5t86 -487.5t-86 -487.5t-233 -409.5q-8 -8 -14 -2l-125 115q-7 7 -4 14z" />
<glyph unicode="*" horiz-adv-x="999" d="M162 928q-7 22 12 33l223 114l-223 113q-19 12 -12 33l45 79q7 13 20 13q7 0 15 -4l213 -140l-15 254q0 9 8 17t17 8h90q9 0 17 -8t8 -17l-15 -254l211 140q8 4 12 4q16 0 23 -13l45 -79h2q7 -21 -12 -33l-223 -113l223 -114q19 -11 12 -33l-2 -2l-45 -76q-6 -12 -23 -12 q-4 0 -12 4l-211 137l15 -254q0 -9 -8 -17t-17 -8h-90q-9 0 -17 8t-8 17l15 254l-213 -137q-8 -4 -15 -4q-14 0 -20 12z" />
<glyph unicode="+" horiz-adv-x="1163" d="M129 563v172q0 10 10 10h344v345q0 10 11 10h172q10 0 10 -10v-345h344q10 0 10 -10v-172q0 -10 -10 -10h-344v-344q0 -10 -10 -10h-172q-11 0 -11 10v344h-344q-10 0 -10 10z" />
<glyph unicode="," horiz-adv-x="651" d="M197 127q0 50 34 85.5t84 35.5q61 0 102.5 -46.5t41.5 -123.5q0 -96 -48.5 -186t-123.5 -148q-11 -4 -21 0l-67 55q-6 9 0 15q54 37 93 92.5t46 109.5q-12 -4 -31 -4q-46 0 -78 33t-32 82z" />
<glyph unicode="-" horiz-adv-x="985" d="M166 571v172q0 11 10 11h633q3 0 6.5 -4t3.5 -7v-172q0 -10 -10 -10h-633q-10 0 -10 10z" />
<glyph unicode="." horiz-adv-x="626" d="M193 100q0 50 34.5 84.5t83.5 34.5q51 0 86 -34.5t35 -84.5t-35 -85t-86 -35q-49 0 -83.5 35t-34.5 85z" />
<glyph unicode="/" horiz-adv-x="1169" d="M27 -74l882 1581q5 9 17 9h192q8 0 4 -9l-882 -1581q-4 -8 -15 -8h-192q-10 0 -6 8z" />
<glyph unicode="0" horiz-adv-x="1486" d="M231 715q0 337 129 532q133 201 383 201t383 -201q129 -191 129 -532q0 -338 -129 -535q-133 -198 -383 -198t-383 198q-129 201 -129 535zM455 715q0 -141 20 -238q3 -12 10 -2l437 686q-67 82 -179 82q-141 0 -213 -133q-75 -135 -75 -395zM571 262q68 -74 172 -74 q140 0 213 134q76 137 76 393q0 128 -18 227q-3 12 -10 2z" />
<glyph unicode="1" horiz-adv-x="1083" d="M184 1006v157q0 13 13 13h10q135 0 188 47q55 49 80 194q0 4 2 10q0 3 5 6t10 3h143q6 0 10 -4t4 -9v-1198h215q15 0 15 -14v-195q0 -14 -15 -14h-643q-14 0 -14 14v195q0 14 14 14h215v766h-237q-6 0 -10.5 4.5t-4.5 10.5z" />
<glyph unicode="2" horiz-adv-x="1261" d="M184 0v188q0 59 9.5 108t31.5 91t34 60.5t40 56.5q65 87 199 172q29 18 76 46.5t67.5 41t54.5 35t48 34.5t36 31.5t30 34.5t18 35.5t13 42t3 47.5v18q0 87 -45 144q-48 57 -150 57q-85 0 -139.5 -57.5t-63.5 -157.5l-2 -14q0 -10 -14 -10l-186 36q-4 0 -8.5 4t-4.5 9v10 q9 162 129 276q120 111 289 111q206 0 320 -129q94 -108 94 -279v-20q0 -139 -107 -270q-29 -36 -88.5 -79t-103.5 -68l-45 -25q-59 -36 -93.5 -58.5t-75.5 -57.5t-64.5 -69t-45 -82t-32.5 -108h655q14 0 14 -12v-179q0 -14 -14 -14h-879z" />
<glyph unicode="3" horiz-adv-x="1177" d="M129 371v14q0 5 3.5 8.5t8.5 3.5h181q14 0 14 -12l2 -10q6 -104 60 -152.5t163 -48.5q33 0 62.5 5.5t60.5 20.5t52.5 39t35.5 65t14 95q0 121 -59 183q-60 63 -190 63h-78q-5 0 -10 4t-5 10v144q0 14 93 14q223 0 223 227q0 114 -53 164q-50 47 -146 47q-100 0 -147 -47 q-51 -48 -60 -143v-14q-4 -11 -16 -11l-176 37q-6 0 -10 4t-2 9l2 12q22 161 137 254q109 92 272 92q179 0 293 -111q115 -109 115 -290q0 -121 -51 -201q-35 -61 -107 -107q82 -42 125 -112q57 -89 57 -230q0 -197 -127 -309q-60 -54 -137 -80q-74 -26 -168 -26 q-180 0 -297 94q-56 45 -94 123q-35 70 -41 172z" />
<glyph unicode="4" horiz-adv-x="1314" d="M184 238v170l2 4l541 1009q9 13 21 13h194q6 0 8.5 -4t-0.5 -9l-522 -991h313v358q0 6 4 10.5t9 4.5h190q14 0 14 -15v-358h158q14 0 14 -14v-178q0 -15 -14 -15h-158v-209q0 -14 -14 -14h-190q-5 0 -9 4t-4 10v209h-542q-6 0 -10.5 4.5t-4.5 10.5z" />
<glyph unicode="5" horiz-adv-x="1271" d="M186 362v13q-1 6 2.5 10t8.5 4h192q17 0 17 -10l2 -8q44 -183 221 -183q114 0 177.5 75.5t63.5 209.5t-63.5 209.5t-177.5 75.5q-153 0 -260 -146l-7 -6q-5 -5 -18 -2l-127 29l80 784q0 15 14 15h680q5 0 9 -4.5t4 -10.5v-178q0 -6 -4 -10t-9 -4h-506l-41 -307 q0 -14 11 -7q82 54 184 54q208 0 330 -140q118 -133 118 -352q0 -218 -124 -354q-125 -137 -334 -137q-184 0 -301 100t-142 280z" />
<glyph unicode="6" horiz-adv-x="1359" d="M231 676q0 337 78 514q53 121 148 186q107 72 264 72q133 0 250 -90q120 -94 139 -236l2 -12q2 -4 -2 -8t-10 -4l-189 -39q-10 -3 -14 12v14q0 58 -50 111t-138 53q-163 0 -224 -176q-34 -88 -41 -225q0 -6 3 -7.5t6 3.5q42 37 77 51q80 41 193 41q204 0 328 -127 q118 -124 118 -328q0 -105 -30 -194q-30 -92 -92 -160q-130 -145 -340 -145q-267 0 -385 219q-91 174 -91 475zM469 475q0 -113 61.5 -193.5t176.5 -80.5q110 0 172.5 69.5t62.5 192.5q0 268 -229 268q-107 0 -175.5 -71.5t-68.5 -184.5z" />
<glyph unicode="7" horiz-adv-x="1157" d="M129 1241v178q0 6 3.5 10.5t8.5 4.5h871q14 0 14 -15v-164l-8 -8q-170 -170 -303 -430h123q5 0 9.5 -4t4.5 -10v-180q0 -6 -4.5 -10.5t-9.5 -4.5h-215q-121 -309 -136 -585l-2 -13q0 -10 -14 -10h-197q-4 0 -8 4t-4 8v13q21 301 129 583h-160q-14 0 -14 15v180 q0 14 14 14h252q114 217 271 400q10 10 -4 10h-609q-12 0 -12 14z" />
<glyph unicode="8" horiz-adv-x="1275" d="M184 420q0 125 60 227q41 69 110 113q16 12 2 22q-50 40 -75 92q-48 85 -48 179q0 165 115 280t291 115q174 0 289 -115q114 -114 114 -280q0 -96 -47 -179q-25 -52 -75 -92q-14 -10 2 -22q69 -44 110 -113q60 -102 60 -227q0 -200 -134 -322q-131 -116 -319 -116 q-191 0 -322 116q-133 121 -133 322zM406 420q0 -108 65 -170t168 -62q101 0 166 62t65 170q0 109 -65 168q-63 63 -166 63q-105 0 -168 -63q-65 -59 -65 -168zM449 1053q0 -85 51 -142q47 -53 139 -53q88 0 135 53h2q51 54 51 142q0 89 -51 143h-2q-47 53 -135 53 q-92 0 -139 -53q-51 -57 -51 -143z" />
<glyph unicode="9" horiz-adv-x="1359" d="M184 948q0 104 31 195q36 95 92 160q130 145 340 145q268 0 389 -219q92 -173 92 -475q0 -343 -79 -514q-57 -124 -150 -187q-109 -71 -264 -71q-147 0 -264 102q-125 106 -131 260v12q0 13 14 13h188q15 0 15 -13v-10q0 -59 47 -106q56 -60 141 -60q161 0 225 176 q32 89 39 226q1 4 0 6t-3 1.5t-5 -3.5q-43 -37 -76 -51q-80 -41 -194 -41q-204 0 -328 127q-119 125 -119 327zM414 967q0 -269 227 -269q107 0 176.5 72t69.5 184q0 72 -24.5 132.5t-80.5 101.5t-135 41q-110 0 -171.5 -69.5t-61.5 -192.5z" />
<glyph unicode=":" horiz-adv-x="626" d="M193 98q0 50 34.5 84.5t83.5 34.5q51 0 86 -34.5t35 -84.5t-35 -85.5t-86 -35.5q-49 0 -83.5 35.5t-34.5 85.5zM193 827q0 51 34 86t84 35q51 0 86 -35t35 -86q0 -48 -35.5 -83t-85.5 -35q-49 0 -83.5 35t-34.5 83z" />
<glyph unicode=";" horiz-adv-x="626" d="M190 121q0 48 32 82.5t81 34.5q59 0 99 -45t40 -121q0 -95 -46.5 -180.5t-121.5 -141.5q-10 -10 -16 0l-65 51q-10 7 0 13q50 36 88 91t45 107q-12 -4 -31 -4q-45 0 -75 32t-30 81zM190 827q0 50 35 85.5t84 35.5t85 -36t36 -85q0 -47 -36 -82.5t-85 -35.5t-84 35t-35 83 z" />
<glyph unicode="&#x3c;" horiz-adv-x="931" d="M104 541v159q0 10 9 15l698 370q8 4 8 -6v-176q0 -10 -8 -14l-489 -264q-3 -1 -3 -4t3 -5l489 -264q8 -4 8 -14v-176q0 -10 -8 -6l-698 370q-9 4 -9 15z" />
<glyph unicode="=" horiz-adv-x="1226" d="M205 367v172q0 10 10 10h797q10 0 10 -10v-172q0 -11 -10 -11h-797q-10 0 -10 11zM205 707v172q0 10 10 10h797q10 0 10 -10v-172q0 -11 -10 -11h-797q-10 0 -10 11z" />
<glyph unicode="&#x3e;" horiz-adv-x="931" d="M109 182v176q0 11 8 15l489 264q8 4 0 8l-489 264q-8 4 -8 15v176q0 10 8 6l698 -371q8 -4 8 -14v-160q0 -10 -8 -14l-698 -371q-8 -4 -8 6z" />
<glyph unicode="?" horiz-adv-x="917" d="M106 1149v2q23 140 118 218.5t241 78.5q168 0 266 -98q98 -94 98 -265q0 -95 -31.5 -154.5t-97.5 -117.5q-25 -23 -77 -65q-43 -33 -54.5 -50.5t-11.5 -56.5v-221q0 -12 -8.5 -20.5t-20.5 -8.5h-133q-13 0 -21.5 8.5t-8.5 20.5v221q0 88 37.5 143.5t146.5 135.5 q51 41 70.5 76t19.5 96q0 90 -45.5 138t-130.5 48q-78 0 -124 -42t-52 -120q-3 -12 -11 -20q-6 -6 -18 -6h-8l-119 26q-10 1 -17.5 11.5t-7.5 21.5zM332 98q0 54 36 89.5t87 35.5q53 0 88 -35.5t35 -89.5q0 -51 -35.5 -86t-87.5 -35q-51 0 -87 35t-36 86z" />
<glyph unicode="@" horiz-adv-x="1142" d="M117 16v1414q0 10 10 10h854q10 0 10 -10v-1414q0 -10 -10 -10h-854q-10 0 -10 10zM289 162h530v1122h-530v-1122z" />
<glyph unicode="A" horiz-adv-x="1476" d="M135 10l514 1415q5 9 15 9h151q12 0 12 -9l516 -1415q3 -10 -8 -10h-200q-10 0 -13 10l-108 324q-4 8 -15 8h-524q-8 0 -12 -8l-107 -324q-3 -10 -14 -10h-201q-9 0 -6 10zM537 555h405l-199 575q-4 8 -8 0z" />
<glyph unicode="B" horiz-adv-x="1304" d="M287 10v1413q0 11 10 11h309q189 0 296.5 -98t107.5 -271q0 -103 -41.5 -179.5t-112.5 -117.5q-8 -4 0 -8q227 -98 227 -334q0 -198 -120.5 -312t-329.5 -114h-336q-10 0 -10 10zM494 203h122q254 0 254 223q0 221 -254 221h-122v-444zM494 860h110q92 0 142.5 49 t50.5 146q0 84 -51.5 130t-141.5 46h-110v-371z" />
<glyph unicode="C" horiz-adv-x="1599" d="M205 717q0 346 188 540q190 193 479 193q217 0 365 -121q26 -22 61 -61.5t45 -59.5q3 -9 -4 -16l-161 -102q-3 -2 -7.5 -1.5t-5.5 3.5q-106 145 -291 145q-209 0 -329 -135q-119 -134 -119 -385t119 -385q120 -135 329 -135q204 0 306 170q7 10 16 10h219q9 0 6 -10 q-69 -172 -184 -265q-145 -118 -365 -118q-290 0 -479 192q-188 194 -188 541z" />
<glyph unicode="D" horiz-adv-x="1499" d="M285 12v1413q0 4 3.5 7.5t6.5 3.5h321q300 0 490 -193q190 -190 190 -524q0 -333 -190 -526q-191 -191 -490 -191h-321q-10 0 -10 10zM487 215h113q82 0 152 16.5t131.5 54.5t104.5 95t68 143.5t25 194.5t-25 194.5t-68 143.5t-104.5 95t-131.5 54.5t-152 16.5h-113 v-1008z" />
<glyph unicode="E" horiz-adv-x="1355" d="M287 10v1413q0 11 10 11h803q10 0 10 -11v-192q0 -10 -10 -10h-592v-351h356q10 0 10 -10v-192q0 -11 -10 -11h-356v-444h612q10 0 10 -10v-193q0 -10 -10 -10h-823q-10 0 -10 10z" />
<glyph unicode="F" horiz-adv-x="1204" d="M287 10v1413q0 11 10 11h768q3 0 6.5 -3.5t3.5 -7.5v-192q0 -10 -10 -10h-557v-367h323q11 0 11 -10v-193q0 -10 -11 -10h-323v-631q0 -10 -10 -10h-201q-10 0 -10 10z" />
<glyph unicode="G" horiz-adv-x="1773" d="M205 717q0 352 188 543q187 190 479 190q149 0 266 -54t193 -155q6 -6 -2 -14l-174 -123q-9 -8 -12 2q-92 131 -271 131q-105 0 -180.5 -29t-132.5 -96q-55 -64 -91 -169.5t-36 -225.5q0 -122 35.5 -228t91.5 -167q64 -70 135.5 -97.5t177.5 -27.5q56 0 113 18 t109.5 53.5t88 97.5t40.5 140h-254q-11 0 -11 10v172q0 3 3.5 6.5t7.5 3.5h569q3 0 6.5 -3.5t3.5 -6.5v-172q0 -10 -10 -10h-104v-496q0 -10 -11 -10h-168q-10 0 -10 10l-18 156q0 4 -2.5 4.5t-3.5 -2.5q-46 -86 -136 -135t-221 -49q-286 0 -473 190q-186 189 -186 543z" />
<glyph unicode="H" horiz-adv-x="1605" d="M287 10v1413q0 4 3.5 7.5t6.5 3.5h201q10 0 10 -11v-530q0 -10 10 -10h569q11 0 11 10v530q0 4 3.5 7.5t6.5 3.5h201q10 0 10 -11v-1413q0 -10 -10 -10h-201q-10 0 -10 10v649q0 11 -11 11h-569q-3 0 -6.5 -3.5t-3.5 -7.5v-649q0 -10 -10 -10h-201q-10 0 -10 10z" />
<glyph unicode="I" horiz-adv-x="1009" d="M266 12v201q0 10 10 10h117v991h-117q-10 0 -10 11v200q0 11 10 11h457q10 0 10 -11v-200q0 -11 -10 -11h-119v-991h119q10 0 10 -10v-201q0 -10 -10 -10h-457q-10 0 -10 10z" />
<glyph unicode="J" horiz-adv-x="1173" d="M76 385q0 8 8 8h207q9 0 12 -10q24 -101 67.5 -143.5t129.5 -42.5q101 0 148.5 58.5t47.5 193.5v763h-98q-3 0 -6.5 3.5t-3.5 7.5v200q0 4 3.5 7.5t6.5 3.5h309q11 0 11 -11v-983q0 -217 -119 -336q-117 -120 -299 -120q-88 0 -162.5 32.5t-126 89t-85.5 127t-50 152.5z " />
<glyph unicode="K" horiz-adv-x="1382" d="M287 10v1413q0 11 10 11h201q10 0 10 -11v-659q0 -8 6 -2l453 663q5 9 16 9h215q4 0 5.5 -3t-1.5 -6l-399 -579l401 -838q4 -8 -6 -8h-219q-12 0 -16 8l-318 647l-137 -186v-459q0 -10 -10 -10h-201q-10 0 -10 10z" />
<glyph unicode="L" horiz-adv-x="1204" d="M289 10v1413q0 4 3.5 7.5t6.5 3.5h201q10 0 10 -11v-1210h534q11 0 11 -10v-193q0 -3 -3.5 -6.5t-7.5 -3.5h-745q-3 0 -6.5 3.5t-3.5 6.5z" />
<glyph unicode="M" horiz-adv-x="1765" d="M287 10v1413q0 11 10 11h242q10 0 14 -11l330 -698l329 698q4 11 15 11h241q4 0 7.5 -4t3.5 -7v-1413q0 -10 -11 -10h-200q-11 0 -11 10v1028q0 10 -4 2l-266 -571h-209l-266 571q-4 8 -4 -2v-1028q0 -10 -10 -10h-201q-10 0 -10 10z" />
<glyph unicode="N" horiz-adv-x="1593" d="M287 10v1413q0 11 10 11h229q12 0 17 -9l538 -1040q4 -12 4 0v1038q0 4 4 7.5t7 3.5h200q11 0 11 -11v-1413q0 -3 -3.5 -6.5t-7.5 -3.5h-231q-11 0 -14 10l-539 1037q-2 5 -5 1l-1 -4v-1034q0 -10 -10 -10h-199q-10 0 -10 10z" />
<glyph unicode="O" horiz-adv-x="1736" d="M205 719q0 344 186 536q188 197 477 197q290 0 478 -197q186 -192 186 -536t-186 -539q-188 -194 -478 -194q-289 0 -477 194q-186 195 -186 539zM426 719q0 -253 117 -385q120 -135 325 -135q209 0 326 135q119 131 119 385t-119 385q-117 135 -326 135 q-205 0 -325 -135q-117 -132 -117 -385z" />
<glyph unicode="P" horiz-adv-x="1232" d="M287 10v1413q0 11 10 11h381q200 0 313 -110t113 -300t-113 -300t-313 -110h-172v-604q0 -10 -10 -10h-199q-10 0 -10 10zM506 827h184q91 0 140 51t49 146t-49 146t-140 51h-184v-394z" />
<glyph unicode="Q" horiz-adv-x="1748" d="M205 733q0 345 186 537q187 196 457 196q311 0 498 -196q186 -192 186 -537q0 -277 -123 -459l111 -127q7 -7 0 -14l-125 -125q-7 -8 -15 0l-104 123q-169 -131 -408 -131q-288 0 -477 195q-186 195 -186 538zM424 733q0 -251 119 -385q120 -135 325 -135q153 0 254 72 l-284 284q-8 7 0 15l125 125q7 7 14 0l274 -275q62 121 62 299q0 252 -121 385q-117 135 -324 135q-205 0 -325 -135q-119 -134 -119 -385z" />
<glyph unicode="R" horiz-adv-x="1316" d="M287 12v1413q0 11 10 11h358q189 0 305.5 -117.5t116.5 -298.5q0 -141 -69 -238.5t-179 -124.5q-10 -3 -4 -12l361 -635q3 -3 1.5 -5.5t-5.5 -2.5h-234q-8 0 -16 8l-359 631h-67v-629q0 -10 -10 -10h-199q-10 0 -10 10zM506 854h158q188 0 188 170q0 87 -49 143t-139 56 h-158v-369z" />
<glyph unicode="S" horiz-adv-x="1243" d="M178 358q0 11 8 11h209q6 0 13 -7q70 -165 227 -165q106 0 166 69q47 56 47 146q0 24 -6 45t-24 42.5t-32 36t-48.5 38.5t-54 36.5t-67.5 42.5q-117 73 -241 178q-107 95 -107 252q0 155 105 260t248 105q135 0 221.5 -55t146.5 -166q5 -10 -4 -15l-158 -90q-4 -2 -12 2 q-40 69 -83 96t-105 27q-63 0 -106.5 -45t-43.5 -106q0 -45 17 -78.5t57 -65.5q15 -10 38.5 -26t31.5 -21l114 -74q100 -64 178 -122q146 -109 154 -299q1 -11 1 -23q0 -150 -112 -270q-123 -135 -319 -135q-175 0 -301 108q-112 95 -158 268z" />
<glyph unicode="T" horiz-adv-x="1228" d="M129 1231v192q0 11 10 11h951q10 0 10 -11v-192q0 -10 -10 -10h-365v-1211q0 -10 -10 -10h-201q-10 0 -10 10v1211h-365q-10 0 -10 10z" />
<glyph unicode="U" horiz-adv-x="1497" d="M256 465v954q0 11 10 11h221q11 0 11 -11v-966q0 -120 55 -188t195 -68q74 0 124.5 19t77.5 56t38 80t11 101v966q0 11 11 11h221q10 0 10 -11v-1413q0 -10 -10 -10h-180q-10 0 -13 10l-14 123q-4 11 -8 2q-49 -77 -119.5 -117.5t-148.5 -40.5q-217 0 -351 123 q-141 132 -141 369z" />
<glyph unicode="V" horiz-adv-x="1374" d="M131 1425q-2 3 1 6t7 3h211q8 0 12 -9l322 -1097q3 -9 6 0l322 1097q4 9 14 9h211q3 0 5 -3t1 -6l-442 -1415q-3 -10 -13 -10h-200q-12 0 -15 10z" />
<glyph unicode="W" horiz-adv-x="2000" d="M180 1423q-1 4 1 7.5t7 3.5h211q9 0 13 -11l241 -1106q0 -4 2.5 -4.5t3.5 2.5l236 650q3 10 14 10h185q11 0 14 -10l235 -650q4 -8 7 2l241 1106q0 11 13 11h211q8 0 8 -11l-334 -1413q-3 -10 -12 -10h-209q-11 0 -15 8l-247 670q-1 3 -2.5 4t-3.5 0t-3 -4l-247 -670 q-4 -8 -15 -8h-209q-12 0 -12 10z" />
<glyph unicode="X" horiz-adv-x="1359" d="M131 8l426 793l-362 624q-5 9 4 9h227q12 0 16 -9l238 -407l238 407q4 9 16 9h227q9 0 4 -9l-362 -624l428 -793q4 -8 -6 -8h-228q-10 0 -14 8l-303 576l-301 -576q-3 -8 -17 -8h-227q-8 0 -4 8z" />
<glyph unicode="Y" horiz-adv-x="1144" d="M77 1431q2 3 5 3h199q9 0 14 -9l278 -579l279 579q4 9 14 9h199q4 0 6 -3t0 -6l-387 -800v-615q0 -10 -10 -10h-201q-3 0 -6.5 3.5t-3.5 6.5v615l-385 800q-3 3 -1 6z" />
<glyph unicode="Z" horiz-adv-x="1284" d="M225 10v178q0 7 6 19l263 448h-160q-3 0 -6.5 3.5t-3.5 7.5v178q0 10 10 10h278l209 363q5 7 2 12.5t-12 5.5h-575q-11 0 -11 10v178q0 11 11 11h811q10 0 10 -11v-178q0 -10 -4 -18l-213 -373h147q10 0 10 -10v-178q0 -11 -10 -11h-258l-248 -438q-4 -7 -0.5 -12.5 t11.5 -5.5h555q10 0 10 -11v-178q0 -10 -10 -10h-811q-11 0 -11 10z" />
<glyph unicode="[" horiz-adv-x="661" d="M195 -98v1618q0 10 10 10h364q11 0 11 -10v-156q0 -10 -11 -10h-159q-11 0 -11 -11v-1265q0 -10 11 -10h159q11 0 11 -11v-155q0 -11 -11 -11h-364q-10 0 -10 11z" />
<glyph unicode="\" horiz-adv-x="1112" d="M26.5 1513q1.5 3 4.5 3h192q13 0 17 -9l882 -1581q4 -8 -6 -8h-192q-11 0 -15 8l-882 1581q-2 3 -0.5 6z" />
<glyph unicode="]" horiz-adv-x="661" d="M80 -78v156q0 10 10 10h160q10 0 10 10v1266q0 10 -10 10h-160q-10 0 -10 10v156q0 10 10 10h365q10 0 10 -10v-1618q0 -10 -10 -10h-365q-10 0 -10 10z" />
<glyph unicode="^" horiz-adv-x="1138" d="M125 862.5q-1 2.5 2 5.5l369 555q9 9 16 9h119q7 0 16 -9l369 -555q3 -3 1.5 -5.5t-5.5 -2.5h-150q-8 0 -16 8l-268 400q-6 6 -13 0l-268 -400q-8 -8 -16 -8h-150q-5 0 -6 2.5z" />
<glyph unicode="_" horiz-adv-x="940" d="M41 6q0 10 10 10h838q10 0 10 -10v-172q0 -10 -10 -10h-838q-10 0 -10 10v172z" />
<glyph unicode="`" horiz-adv-x="466" d="M43 1437.5q1 2.5 4 2.5h227q12 0 15 -10l131 -275q3 -10 -6 -10h-119q-8 0 -16 8l-234 279q-3 3 -2 5.5z" />
<glyph unicode="a" horiz-adv-x="1466" d="M129 8l514 1415q5 9 14 9h152q12 0 12 -9l516 -1415q3 -10 -8 -10h-201q-9 0 -12 10l-127 385q-7 10 -10 0l-139 -385q-3 -10 -15 -10h-184q-11 0 -14 10l-140 385q-3 10 -10 0l-127 -385q-3 -10 -14 -10h-201q-9 0 -6 10zM580 698l149 -403q1 -3 2.5 -4t3 0t2.5 4 l150 403l-150 451q-4 8 -8 0z" />
<glyph unicode="b" horiz-adv-x="1304" d="M287 12v1413q0 11 10 11h336q209 0 329.5 -114t120.5 -312q0 -124 -61 -217t-166 -138q-8 -4 0 -8q97 -39 146 -111t49 -165q0 -175 -114 -272t-331 -97h-309q-10 0 -10 10zM494 205h110q234 0 234 176q0 174 -234 174h-110v-350zM494 788h122q125 0 189.5 56t64.5 166 q0 223 -254 223h-122v-445z" />
<glyph unicode="c" horiz-adv-x="1196" d="M205 717q0 346 188 540q190 193 459 193q84 0 158 -18q10 -3 10 -13v-202q0 -13 -6 -13q-1 0 -3 1t-3 1q-70 31 -154 31q-189 0 -309 -135q-119 -134 -119 -385t119 -385q120 -135 309 -135q86 0 156 30q2 2 4 2q6 0 6 -10v-205q0 -12 -10 -12q-74 -18 -158 -18 q-270 0 -459 192q-188 194 -188 541z" />
<glyph unicode="d" horiz-adv-x="1503" d="M287 10v193q0 10 10 10h143v1008h-143q-10 0 -10 10v192q0 4 3.5 7.5t6.5 3.5h362q279 0 469 -193q191 -191 191 -524t-191 -527q-190 -190 -469 -190h-362q-10 0 -10 10zM643 213q76 0 142 16.5t125.5 54.5t102 95t67 143.5t24.5 194.5t-24.5 194.5t-67 143.5t-102 95 t-125.5 54.5t-142 16.5v-1008z" />
<glyph unicode="e" horiz-adv-x="1361" d="M287 10v1413q0 11 10 11h803q10 0 10 -11v-192q0 -10 -10 -10h-592v-310h618q11 0 11 -10v-192q0 -11 -11 -11h-618v-485h612q10 0 10 -10v-193q0 -10 -10 -10h-823q-10 0 -10 10z" />
<glyph unicode="f" horiz-adv-x="1226" d="M287 10v1413q0 11 10 11h768q3 0 6.5 -3.5t3.5 -7.5v-192q0 -10 -10 -10h-557v-326h579q11 0 11 -10v-193q0 -10 -11 -10h-579v-672q0 -10 -10 -10h-201q-10 0 -10 10z" />
<glyph unicode="g" horiz-adv-x="1773" d="M205 717q0 352 188 543q187 190 479 190q79 0 142.5 -25t120.5 -88q3 -3 5.5 -1t2.5 7v99q0 10 10 10h170q10 0 10 -10v-326q0 -10 -10 -10h-180q-92 131 -271 131q-105 0 -180.5 -29t-132.5 -96q-55 -64 -91 -169.5t-36 -225.5q0 -122 35.5 -228t91.5 -167 q64 -70 135.5 -97.5t177.5 -27.5q56 0 113 18t109.5 53.5t88 97.5t40.5 140h-340q-11 0 -11 10v172q0 3 3.5 6.5t7.5 3.5h655q3 0 6.5 -3.5t3.5 -6.5v-172q0 -10 -10 -10h-104v-496q0 -10 -11 -10h-168q-10 0 -10 10l-18 156q0 4 -2.5 4.5t-3.5 -2.5q-46 -86 -136 -135 t-221 -49q-286 0 -473 190q-186 189 -186 543z" />
<glyph unicode="h" horiz-adv-x="1605" d="M287 10v1413q0 4 3.5 7.5t6.5 3.5h201q10 0 10 -11v-383q0 -10 10 -10h569q11 0 11 10v383q0 4 3.5 7.5t6.5 3.5h201q10 0 10 -11v-1413q0 -10 -10 -10h-201q-10 0 -10 10v797q0 10 -11 10h-569q-10 0 -10 -10v-797q0 -10 -10 -10h-201q-10 0 -10 10z" />
<glyph unicode="i" horiz-adv-x="1337" d="M266 12v201q0 10 10 10h281v991h-281q-10 0 -10 11v200q0 11 10 11h785q10 0 10 -11v-200q0 -11 -10 -11h-283v-991h283q10 0 10 -10v-201q0 -10 -10 -10h-785q-10 0 -10 10z" />
<glyph unicode="j" horiz-adv-x="1400" d="M82 385q0 8 8 8h207q9 0 12 -10q24 -101 67.5 -143.5t129.5 -42.5q101 0 148.5 58.5t47.5 193.5v753q0 10 -10 10h-301q-3 0 -6.5 3.5t-3.5 7.5v200q0 4 3.5 7.5t6.5 3.5h744q3 0 6.5 -3.5t3.5 -7.5v-200q0 -4 -3.5 -7.5t-6.5 -3.5h-201q-10 0 -10 -10v-762 q0 -217 -119 -336q-117 -120 -299 -120q-88 0 -162.5 32.5t-126 89t-85.5 127t-50 152.5z" />
<glyph unicode="k" horiz-adv-x="1366" d="M285 10v1413q0 11 10 11h201q10 0 10 -11v-448q0 -6 1.5 -8.5t4.5 -1.5t6 6l371 454q5 9 16 9h256q4 0 5.5 -3t-1.5 -6l-501 -600l524 -817q4 -8 -6 -8h-240q-12 0 -16 8l-410 631q-10 13 -10 -4v-625q0 -10 -10 -10h-201q-10 0 -10 10z" />
<glyph unicode="l" horiz-adv-x="1220" d="M150 10v193q0 10 10 10h555v1210q0 11 10 11h201q3 0 6.5 -3.5t3.5 -7.5v-1413q0 -3 -3.5 -6.5t-6.5 -3.5h-766q-10 0 -10 10z" />
<glyph unicode="m" horiz-adv-x="2099" d="M145 10l504 1415q4 11 13 11h200q11 0 15 -11l176 -491l174 491q4 11 12 11h201q10 0 14 -11l504 -1415q2 -3 -1 -5.5t-7 -2.5h-211q-9 0 -13 8l-383 1098q-3 9 -6 0l-172 -494l215 -604q2 -3 -1 -5.5t-7 -2.5h-211q-8 0 -12 8l-96 279l-99 -279q-4 -8 -14 -8h-211 q-3 0 -5 2.5t-1 5.5l215 604l-172 494q-3 9 -6 0l-383 -1098q-4 -8 -15 -8h-210q-3 0 -5.5 2.5t-1.5 5.5z" />
<glyph unicode="n" horiz-adv-x="1265" d="M287 10v1413q0 11 10 11h188q13 0 17 -9l272 -835q4 -12 4 0v833q0 4 3.5 7.5t6.5 3.5h181q10 0 10 -11v-1413q0 -10 -10 -10h-211q-12 0 -15 10l-251 832q-3 6 -6 2l-1 -4v-830q0 -10 -10 -10h-178q-10 0 -10 10z" />
<glyph unicode="o" horiz-adv-x="1736" d="M205 717q0 344 186 536q188 197 477 197q290 0 478 -197q186 -192 186 -536t-186 -539q-188 -194 -478 -194q-289 0 -477 194q-186 195 -186 539zM426 717q0 -253 117 -385q120 -135 325 -135q209 0 326 135q119 131 119 385t-119 385q-117 135 -326 135 q-205 0 -325 -135q-117 -132 -117 -385zM662 717q0 122 57 188q62 68 151 68q91 0 150 -68q57 -63 57 -188q0 -128 -57 -191q-59 -65 -150 -65q-89 0 -151 65q-57 66 -57 191z" />
<glyph unicode="p" horiz-adv-x="1243" d="M285 10v1403q0 10 10 10h194q11 0 11 -10v-31q93 52 198 52q172 0 294 -122t122 -294t-122 -293t-294 -121q-107 0 -198 51v-645q0 -10 -8 -10h-197q-10 0 -10 10zM494 1018q0 -85 60 -145t146 -60q85 0 145 60t60 145q0 86 -60 146.5t-145 60.5q-86 0 -146 -60.5 t-60 -146.5z" />
<glyph unicode="q" horiz-adv-x="1916" d="M205 733q0 345 186 537q187 196 477 196q291 0 478 -196q186 -192 186 -537q0 -277 -123 -459l289 -284q8 -8 0 -15l-125 -125q-7 -7 -14 0l-283 281q-169 -131 -408 -131q-288 0 -477 195q-186 195 -186 538zM424 733q0 -251 119 -385q120 -135 325 -135q153 0 254 72 l-301 303q-7 7 0 14l125 125q8 7 15 0l290 -293q62 121 62 299q0 252 -121 385q-117 135 -324 135q-205 0 -325 -135q-119 -134 -119 -385z" />
<glyph unicode="r" horiz-adv-x="1316" d="M287 10v1413q0 11 10 11h358q189 0 305.5 -117.5t116.5 -298.5q0 -141 -69 -238.5t-179 -124.5q-7 -2 -4 -12l15 -22l346 -613q3 -3 1.5 -5.5t-5.5 -2.5h-234q-8 0 -16 8l-420 744q-6 6 -6 -2v-740q0 -10 -10 -10h-199q-10 0 -10 10zM506 1206l201 -352q145 18 145 168 q0 87 -49 143t-139 56h-158v-15z" />
<glyph unicode="s" horiz-adv-x="1210" d="M176 594l465 831q5 9 16 9h228q9 0 4 -9l-350 -626h491q10 0 6 -8l-432 -783q-4 -8 -16 -8h-228q-8 0 -4 8l320 578h-494q-10 0 -6 8z" />
<glyph unicode="t" horiz-adv-x="1304" d="M137 643l402 778q4 11 14 11h203q10 0 14 -11l399 -778q3 -3 1 -5.5t-5 -2.5h-200q-11 0 -15 8l-176 348q-2 4 -4 5t-3 -1t-1 -8v-979q0 -10 -10 -10h-203q-10 0 -10 10v977q0 9 -3.5 9.5t-7.5 -7.5l-174 -344q-4 -8 -14 -8h-201q-10 0 -6 8z" />
<glyph unicode="u" horiz-adv-x="1484" d="M256 10v1409q0 15 10 15h215q11 0 11 -15v-1194q0 -10 10 -10h481q10 0 10 10v1194q0 15 11 15h215q10 0 10 -15v-1409q0 -10 -10 -10h-953q-10 0 -10 10z" />
<glyph unicode="v" horiz-adv-x="1282" d="M131 10v1413q0 11 10 11h203q3 0 6.5 -3.5t3.5 -7.5v-960q0 -12 4 0l510 962q4 9 13 9h211q4 0 7 -3t1 -6l-727 -1415q-3 -10 -15 -10h-215q-4 0 -8 3.5t-4 6.5z" />
<glyph unicode="w" horiz-adv-x="2170" d="M180 1427q-2 3 1 6t7 3h211q9 0 13 -9l383 -1097q3 -9 6 0l172 493l-215 604q-2 3 1 6t7 3h211q7 0 12 -9l96 -278l99 278q4 9 14 9h211q3 0 5 -3t1 -6l-215 -604l172 -493q3 -9 6 0l383 1097q5 9 15 9h211q3 0 5 -3t1 -6l-504 -1415q-3 -10 -12 -10h-201q-11 0 -14 10 l-177 492l-174 -492q-3 -10 -12 -10h-201q-11 0 -14 10z" />
<glyph unicode="x" horiz-adv-x="1155" d="M131 8l324 793l-260 624q-5 9 4 9h227q12 0 16 -9l136 -346l135 346q5 9 16 9h227q10 0 5 -9l-261 -624l326 -793q4 -8 -6 -8h-885q-8 0 -4 8zM453 199h252l-127 323z" />
<glyph unicode="y" horiz-adv-x="1026" d="M146.5 1431q2.5 3 5.5 3h213q9 0 14 -9l135 -559l135 559q5 9 15 9h213q4 0 6 -3t0 -6l-265 -800v-615q0 -10 -10 -10h-188q-3 0 -6.5 3.5t-3.5 6.5v615l-263 800q-3 3 -0.5 6z" />
<glyph unicode="z" horiz-adv-x="1290" d="M229 14v179q0 4 7 18l294 502l-206 141q-8 4 -5 14l101 148q3 3 8 3.5t6 -1.5l197 -133l194 336q5 7 2 12.5t-12 5.5h-575q-11 0 -11 10v178q0 11 11 11h811q10 0 10 -11v-178q0 -10 -4 -18l-260 -459l178 -121q10 -6 2 -14l-100 -148q-3 -9 -13 -4l-164 111l-2 2 l-213 -377q-4 -7 -0.5 -12.5t11.5 -5.5h555q10 0 10 -10v-179q0 -10 -10 -10h-811q-11 0 -11 10z" />
<glyph unicode="{" horiz-adv-x="1069" d="M117 16v1414q0 10 10 10h854q10 0 10 -10v-1414q0 -10 -10 -10h-854q-10 0 -10 10zM289 162h530v1122h-530v-1122z" />
<glyph unicode="|" horiz-adv-x="561" d="M197 -61v1556q0 21 20 21h164q20 0 20 -21v-1556q0 -21 -20 -21h-164q-20 0 -20 21z" />
<glyph unicode="}" horiz-adv-x="1099" d="M117 16v1414q0 10 10 10h854q10 0 10 -10v-1414q0 -10 -10 -10h-854q-10 0 -10 10zM289 162h530v1122h-530v-1122z" />
<glyph unicode="~" horiz-adv-x="1286" d="M309 504q2 147 53 226t146 79q41 0 73 -19.5t52 -47t38 -55t40 -47t49 -19.5q42 0 69.5 41.5t28.5 123.5q0 11 10 11h72q10 0 10 -11q-2 -147 -52.5 -226t-145.5 -79q-41 0 -73 19.5t-52 47.5t-38 55.5t-40 47t-49 19.5q-42 0 -70 -42t-29 -124q0 -10 -10 -10h-72 q-10 0 -10 10z" />
<glyph unicode="&#xa1;" horiz-adv-x="706" d="M231 -385l76 991q0 12 8.5 20.5t20.5 8.5h53q14 0 23.5 -8.5t9.5 -20.5l76 -993v-2q0 -12 -8.5 -20.5t-20.5 -8.5h-211q-16 0 -22 12q-8 8 -5 21zM242 926q0 50 36.5 86.5t88.5 36.5q49 0 84.5 -36.5t35.5 -86.5q0 -51 -35 -87t-85 -36q-52 0 -88.5 36t-36.5 87z" />
<glyph unicode="&#xa2;" d="M113 721q0 258 141 405q110 110 260 134v176q0 20 21 20h122q21 0 21 -20v-168q146 -14 235 -88q51 -44 76 -80q4 -7 -2 -13l-145 -110q-8 -4 -11 2q-67 98 -219 98q-150 0 -233 -92q-82 -94 -82 -264q0 -172 82 -266q84 -93 233 -93q85 0 140.5 29t91.5 90q1 0 4.5 2 t5.5 2h182q3 0 5 -2.5t1 -5.5q-54 -157 -129 -219q-91 -72 -235 -86v-158q0 -20 -21 -20h-122q-21 0 -21 20v166q-152 25 -260 133q-141 147 -141 408z" />
<glyph unicode="&#xa3;" horiz-adv-x="1112" d="M117 16v1414q0 10 10 10h854q10 0 10 -10v-1414q0 -10 -10 -10h-854q-10 0 -10 10zM289 162h530v1122h-530v-1122z" />
<glyph unicode="&#xa4;" horiz-adv-x="1134" d="M117 16v1414q0 10 10 10h854q10 0 10 -10v-1414q0 -10 -10 -10h-854q-10 0 -10 10zM289 162h530v1122h-530v-1122z" />
<glyph unicode="&#xa5;" horiz-adv-x="1032" d="M117 16v1414q0 10 10 10h854q10 0 10 -10v-1414q0 -10 -10 -10h-854q-10 0 -10 10zM289 162h530v1122h-530v-1122z" />
<glyph unicode="&#xa6;" horiz-adv-x="1167" d="M117 16v1414q0 10 10 10h854q10 0 10 -10v-1414q0 -10 -10 -10h-854q-10 0 -10 10zM289 162h530v1122h-530v-1122z" />
<glyph unicode="&#xa7;" horiz-adv-x="1105" d="M117 16v1414q0 10 10 10h854q10 0 10 -10v-1414q0 -10 -10 -10h-854q-10 0 -10 10zM289 162h530v1122h-530v-1122z" />
<glyph unicode="&#xa8;" horiz-adv-x="653" d="M41 1333q0 49 33.5 83t81.5 34q51 0 83.5 -33.5t32.5 -83.5t-32.5 -82t-83.5 -32q-48 0 -81.5 32.5t-33.5 81.5zM381 1333q0 49 33.5 83t81.5 34q51 0 83.5 -33.5t32.5 -83.5t-32.5 -82t-83.5 -32q-48 0 -81.5 32.5t-33.5 81.5z" />
<glyph unicode="&#xa9;" horiz-adv-x="1843" d="M154 719q0 340 221 569q224 230 557 230q335 0 555 -230q223 -226 223 -569t-223 -572q-220 -227 -555 -227q-333 0 -557 227q-221 232 -221 572zM348 719q0 -257 162 -436q158 -174 422 -174t422 174q162 179 162 436t-162 436q-158 174 -422 174t-422 -174 q-162 -179 -162 -436zM530 719q0 222 123 348q125 125 297 125q145 0 240 -80q38 -28 67 -72q10 -10 7 -26q-3 -14 -17 -25l-82 -53q-9 -6 -20 -6q-21 0 -31 16q-59 80 -164 80q-108 0 -178 -76q-67 -79 -67 -231q0 -153 67 -232q69 -75 178 -75q117 0 174 96q10 20 35 20 h111q17 0 30 -16q10 -13 3 -31q-39 -97 -113 -157q-96 -78 -240 -78q-172 0 -297 125q-123 126 -123 348z" />
<glyph unicode="&#xaa;" horiz-adv-x="1128" d="M117 16v1414q0 10 10 10h854q10 0 10 -10v-1414q0 -10 -10 -10h-854q-10 0 -10 10zM289 162h530v1122h-530v-1122z" />
<glyph unicode="&#xab;" horiz-adv-x="1251" d="M41 625v86q0 31 25 49l534 383q8 8 21 8q11 0 19.5 -9.5t8.5 -23.5v-143q0 -32 -24 -49l-361 -258l361 -258q24 -17 24 -50v-143q0 -11 -6 -20q-10 -13 -22 -13t-21 9l-534 382q-25 18 -25 50zM512 625v86q0 31 25 49l534 383q8 8 21 8q11 0 19.5 -9.5t8.5 -23.5v-143 q0 -32 -24 -49l-361 -258l361 -258q24 -17 24 -50v-143q0 -11 -6 -20q-10 -13 -22 -13t-21 9l-534 382q-25 18 -25 50z" />
<glyph unicode="&#xac;" horiz-adv-x="1189" d="M117 16v1414q0 10 10 10h854q10 0 10 -10v-1414q0 -10 -10 -10h-854q-10 0 -10 10zM289 162h530v1122h-530v-1122z" />
<glyph unicode="&#xad;" horiz-adv-x="985" d="M117 16v1414q0 10 10 10h854q10 0 10 -10v-1414q0 -10 -10 -10h-854q-10 0 -10 10zM289 162h530v1122h-530v-1122z" />
<glyph unicode="&#xae;" horiz-adv-x="1843" d="M143 725q0 339 222 569q224 230 557 230q335 0 555 -230q223 -226 223 -569q0 -342 -223 -571q-221 -228 -555 -228q-332 0 -557 228q-222 233 -222 571zM338 725q0 -257 162 -436q158 -174 422 -174q263 0 421 174q162 179 162 436t-162 436q-158 174 -421 174 q-264 0 -422 -174q-162 -179 -162 -436zM668 324v833q0 11 7 18t17 7h223q133 0 205 -72q78 -81 78 -199q0 -193 -158 -239l217 -340q7 -10 0 -23q-7 -10 -18 -10h-141q-18 0 -25 14l-203 344h-36v-333q0 -9 -8.5 -17t-18.5 -8h-115q-10 0 -17 8t-7 17zM834 819h86 q56 0 82 22.5t26 71.5q0 54 -28.5 83.5t-79.5 29.5h-86v-207z" />
<glyph unicode="&#xaf;" horiz-adv-x="1120" d="M117 16v1414q0 10 10 10h854q10 0 10 -10v-1414q0 -10 -10 -10h-854q-10 0 -10 10zM289 162h530v1122h-530v-1122z" />
<glyph unicode="&#xb0;" horiz-adv-x="729" d="M63 1147q0 126 90 214.5t216 88.5t215.5 -88.5t89.5 -214.5t-89.5 -215.5t-215.5 -89.5t-216 89.5t-90 215.5zM211 1147q0 -69 45.5 -115.5t112.5 -46.5t112 46.5t45 115.5q0 68 -45 114t-112 46q-68 0 -113 -45.5t-45 -114.5z" />
<glyph unicode="&#xb1;" horiz-adv-x="1163" d="M117 16v1414q0 10 10 10h854q10 0 10 -10v-1414q0 -10 -10 -10h-854q-10 0 -10 10zM289 162h530v1122h-530v-1122z" />
<glyph unicode="&#xb2;" horiz-adv-x="1165" d="M117 16v1414q0 10 10 10h854q10 0 10 -10v-1414q0 -10 -10 -10h-854q-10 0 -10 10zM289 162h530v1122h-530v-1122z" />
<glyph unicode="&#xb3;" horiz-adv-x="1144" d="M117 16v1414q0 10 10 10h854q10 0 10 -10v-1414q0 -10 -10 -10h-854q-10 0 -10 10zM289 162h530v1122h-530v-1122z" />
<glyph unicode="&#xb4;" horiz-adv-x="466" d="M51 1165l123 258q8 19 29 19h207q18 0 8 -17l-223 -262q-10 -16 -33 -16h-99q-19 0 -12 18z" />
<glyph unicode="&#xb5;" horiz-adv-x="1181" d="M117 16v1414q0 10 10 10h854q10 0 10 -10v-1414q0 -10 -10 -10h-854q-10 0 -10 10zM289 162h530v1122h-530v-1122z" />
<glyph unicode="&#xb6;" horiz-adv-x="1402" d="M182 1038q0 164 115 279q57 57 123.5 87t126.5 30h557q20 0 20 -21v-115q0 -20 -20 -20h-37q-20 0 -20 -21v-1654q0 -9 -6 -15t-15 -6h-131q-9 0 -15 6t-6 15v1654q0 21 -20 21h-115q-20 0 -20 -21v-1654q0 -9 -6 -15t-15 -6h-131q-20 0 -20 21v1020q0 20 -21 20 q-118 7 -229 115q-115 118 -115 280z" />
<glyph unicode="&#xb7;" horiz-adv-x="626" d="M152 715q0 68 46 115t115 47q67 0 114.5 -47.5t47.5 -114.5q0 -69 -47 -115.5t-115 -46.5q-69 0 -115 46.5t-46 115.5z" />
<glyph unicode="&#xb8;" horiz-adv-x="405" d="M27 -369l196 234q10 16 33 16h102q20 0 13 -18l-154 -322q-3 -7 -11.5 -10t-15.5 0l-157 76q-16 7 -6 24z" />
<glyph unicode="&#xb9;" horiz-adv-x="598" d="M117 16v1414q0 10 10 10h854q10 0 10 -10v-1414q0 -10 -10 -10h-854q-10 0 -10 10zM289 162h530v1122h-530v-1122z" />
<glyph unicode="&#xba;" horiz-adv-x="1056" d="M117 16v1414q0 10 10 10h854q10 0 10 -10v-1414q0 -10 -10 -10h-854q-10 0 -10 10zM289 162h530v1122h-530v-1122z" />
<glyph unicode="&#xbb;" horiz-adv-x="1251" d="M82 217v143q0 33 24 50l361 258l-361 258q-24 17 -24 49v143q0 14 9 23.5t20 9.5q12 0 20 -8l535 -383q24 -17 24 -49v-86q0 -33 -24 -50l-535 -382q-9 -9 -20 -9q-13 0 -23 13q-6 9 -6 20zM553 217v143q0 32 25 50l360 258l-360 258q-25 18 -25 49v143q0 14 9 23.5 t20 9.5q12 0 20 -8l535 -383q24 -17 24 -49v-86q0 -33 -24 -50l-535 -382q-9 -9 -20 -9q-13 0 -23 13q-6 9 -6 20z" />
<glyph unicode="&#xbc;" horiz-adv-x="1153" d="M117 16v1414q0 10 10 10h854q10 0 10 -10v-1414q0 -10 -10 -10h-854q-10 0 -10 10zM289 162h530v1122h-530v-1122z" />
<glyph unicode="&#xbd;" d="M117 16v1414q0 10 10 10h854q10 0 10 -10v-1414q0 -10 -10 -10h-854q-10 0 -10 10zM289 162h530v1122h-530v-1122z" />
<glyph unicode="&#xbe;" horiz-adv-x="1159" d="M117 16v1414q0 10 10 10h854q10 0 10 -10v-1414q0 -10 -10 -10h-854q-10 0 -10 10zM289 162h530v1122h-530v-1122z" />
<glyph unicode="&#xbf;" horiz-adv-x="917" d="M86 -76q0 95 31.5 155t97.5 118q19 18 78 65q42 33 53.5 50.5t11.5 56.5v221q0 12 8.5 20t20.5 8h133q13 0 22 -8t9 -20v-221q0 -88 -37.5 -143.5t-146.5 -135.5q-51 -41 -71 -76t-20 -96q0 -90 46 -138t131 -48q78 0 124 42t52 120q3 13 10 20q6 6 18 6h9l118 -26 q10 -1 17.5 -11.5t7.5 -21.5v-2q-23 -140 -117.5 -218.5t-240.5 -78.5q-169 0 -267 98q-98 94 -98 264zM338 911q0 51 35.5 86t87.5 35q51 0 87 -35t36 -86q0 -53 -36 -89t-87 -36q-53 0 -88 35.5t-35 89.5z" />
<glyph unicode="&#xc0;" horiz-adv-x="1464" d="M127 10l514 1415q5 9 14 9h152q12 0 12 -9l516 -1415q3 -10 -8 -10h-201q-9 0 -12 10l-108 324q-4 8 -15 8h-524q-8 0 -12 -8l-107 -324q-3 -10 -14 -10h-201q-9 0 -6 10zM360 1831q-6 6 2 6h140q6 0 18 -6l287 -283q5 -2 2 -5l-4 -1h-96q-13 0 -19 6zM528 555h406 l-199 575q-4 8 -8 0z" />
<glyph unicode="&#xc1;" horiz-adv-x="1470" d="M131 10l514 1415q5 9 14 9h152q12 0 12 -9l516 -1415q3 -10 -8 -10h-201q-9 0 -12 10l-114 344q-4 8 -15 8h-510q-8 0 -12 -8l-115 -344q-3 -10 -14 -10h-201q-9 0 -6 10zM541 575h389l-191 576q-4 8 -8 0zM679.5 1548q-0.5 2 2.5 4l287 283q12 6 18 6h139q8 0 2 -6 l-329 -283q-6 -6 -19 -6h-96q-4 0 -4.5 2z" />
<glyph unicode="&#xc2;" horiz-adv-x="1468" d="M127 10l514 1415q5 9 14 9h152q12 0 12 -9l516 -1415q3 -10 -8 -10h-201q-9 0 -12 10l-108 324q-4 8 -15 8h-524q-8 0 -12 -8l-107 -324q-3 -10 -14 -10h-201q-9 0 -6 10zM481 1606.5q-1 2.5 2 5.5l183 278q8 8 16 8h127q8 0 16 -8l189 -278q3 -3 1.5 -5.5t-5.5 -2.5h-84 q-9 0 -17 8l-157 200q-6 6 -13 0l-151 -200q-8 -8 -17 -8h-84q-5 0 -6 2.5zM528 555h406l-199 575q-4 8 -8 0z" />
<glyph unicode="&#xc3;" horiz-adv-x="1466" d="M127 10l514 1415q5 9 14 9h152q12 0 12 -9l516 -1415q3 -10 -8 -10h-201q-9 0 -12 10l-108 324q-4 8 -15 8h-524q-8 0 -12 -8l-107 -324q-3 -10 -14 -10h-201q-9 0 -6 10zM444 1573q2 119 54 191.5t145 72.5q41 0 73 -19.5t52 -47t38 -55t40 -47t49 -19.5q42 0 69.5 42 t28.5 124q0 10 11 10h71q10 0 10 -10q-2 -119 -53.5 -192t-144.5 -73q-34 0 -62.5 14t-46.5 35t-35.5 45.5t-31.5 45.5t-33.5 35t-42.5 14q-42 0 -69.5 -42t-28.5 -124q0 -10 -11 -10h-71q-11 0 -11 10zM528 555h406l-199 575q-4 8 -8 0z" />
<glyph unicode="&#xc4;" horiz-adv-x="1460" d="M127 10l514 1415q5 9 14 9h152q12 0 12 -9l516 -1415q3 -10 -8 -10h-201q-9 0 -12 10l-108 324q-4 8 -15 8h-524q-8 0 -12 -8l-107 -324q-3 -10 -14 -10h-201q-9 0 -6 10zM428 1692q0 40 28 67t68 27q39 0 66.5 -27.5t27.5 -66.5q0 -38 -28 -66.5t-66 -28.5 q-40 0 -68 28.5t-28 66.5zM528 555h406l-199 575q-4 8 -8 0zM852 1692q0 39 27.5 66.5t66.5 27.5q40 0 68 -27t28 -67q0 -38 -28 -66.5t-68 -28.5q-38 0 -66 28.5t-28 66.5z" />
<glyph unicode="&#xc5;" horiz-adv-x="1468" d="M127 10l514 1415q5 9 14 9h152q12 0 12 -9l516 -1415q3 -10 -8 -10h-201q-9 0 -12 10l-108 324q-4 8 -15 8h-524q-8 0 -12 -8l-107 -324q-3 -10 -14 -10h-201q-9 0 -6 10zM528 555h406l-199 575q-4 8 -8 0zM532 1739q0 86 58.5 145.5t144.5 59.5q87 0 145 -59t58 -146 q0 -85 -57.5 -141t-145.5 -56q-87 0 -145 56t-58 141zM647 1741q-5 -55 41.5 -78t93 0t41.5 78q5 58 -41.5 82t-93 0t-41.5 -82z" />
<glyph unicode="&#xc6;" horiz-adv-x="1699" d="M16 10l621 1424h909q3 0 6.5 -3.5t3.5 -7.5v-151q0 -3 -3.5 -6.5t-6.5 -3.5h-633v-412h408q10 0 10 -10v-152q0 -3 -3.5 -6.5t-6.5 -3.5h-408v-506h654q10 0 10 -10v-152q0 -3 -3.5 -6.5t-6.5 -3.5h-836v383h-371l-159 -373q-5 -10 -15 -10h-163q-4 0 -6.5 3.5t-0.5 6.5z M434 555h297v655q0 6 -1 8t-3 0.5t-4 -6.5z" />
<glyph unicode="&#xc7;" horiz-adv-x="1599" d="M205 717q0 346 188 540q190 193 479 193q217 0 365 -121q26 -22 61 -61.5t45 -59.5q3 -9 -4 -16l-161 -102q-3 -2 -7.5 -1.5t-5.5 3.5q-106 145 -291 145q-209 0 -329 -135q-119 -134 -119 -385t119 -385q120 -135 329 -135q204 0 306 170q7 10 16 10h219q9 0 6 -10 q-69 -172 -184 -265q-145 -118 -365 -118q-290 0 -479 192q-188 194 -188 541zM590 -385l196 233q10 17 33 17h103q9 0 12 -5.5t0 -13.5l-154 -321q-3 -7 -11 -10t-15 0l-158 75q-17 7 -6 25z" />
<glyph unicode="&#xc8;" horiz-adv-x="1355" d="M287 10v1413q0 11 10 11h803q10 0 10 -11v-192q0 -10 -10 -10h-592v-351h356q10 0 10 -10v-192q0 -11 -10 -11h-356v-444h612q10 0 10 -10v-193q0 -10 -10 -10h-823q-10 0 -10 10zM369 1831q-6 6 2 6h139q6 0 18 -6l287 -283q5 -2 2 -5l-4 -1h-96q-13 0 -19 6z" />
<glyph unicode="&#xc9;" horiz-adv-x="1355" d="M287 10v1413q0 11 10 11h803q10 0 10 -11v-192q0 -10 -10 -10h-592v-351h356q10 0 10 -10v-192q0 -11 -10 -11h-356v-444h612q10 0 10 -10v-193q0 -10 -10 -10h-823q-10 0 -10 10zM616 1548q-1 2 2 4l287 283q12 6 19 6h139q8 0 2 -6l-330 -283q-6 -6 -18 -6h-96 q-4 0 -5 2z" />
<glyph unicode="&#xca;" horiz-adv-x="1355" d="M287 10v1413q0 11 10 11h803q10 0 10 -11v-192q0 -10 -10 -10h-592v-351h356q10 0 10 -10v-192q0 -11 -10 -11h-356v-444h612q10 0 10 -10v-193q0 -10 -10 -10h-823q-10 0 -10 10zM455 1606.5q-1 2.5 2 5.5l182 278q8 8 16 8h127q9 0 17 -8l188 -278q3 -3 2 -5.5t-6 -2.5 h-84q-8 0 -16 8l-158 200q-6 6 -12 0l-152 -200q-8 -8 -16 -8h-84q-5 0 -6 2.5z" />
<glyph unicode="&#xcb;" horiz-adv-x="1355" d="M287 10v1413q0 11 10 11h803q10 0 10 -11v-192q0 -10 -10 -10h-592v-351h356q10 0 10 -10v-192q0 -11 -10 -11h-356v-444h612q10 0 10 -10v-193q0 -10 -10 -10h-823q-10 0 -10 10zM403 1692q0 39 28.5 66.5t68.5 27.5q39 0 66.5 -27.5t27.5 -66.5q0 -38 -28 -66.5 t-66 -28.5q-40 0 -68.5 28.5t-28.5 66.5zM827 1692q0 39 28 66.5t67 27.5q40 0 68 -27t28 -67q0 -38 -28 -66.5t-68 -28.5q-38 0 -66.5 28.5t-28.5 66.5z" />
<glyph unicode="&#xcc;" horiz-adv-x="1021" d="M147 1831q-6 6 3 6h139q6 0 18 -6l287 -283q5 -2 2 -5l-4 -1h-96q-13 0 -19 6zM279 12v201q0 10 10 10h117v991h-117q-10 0 -10 11v200q0 11 10 11h456q11 0 11 -11v-200q0 -11 -11 -11h-118v-991h118q11 0 11 -10v-201q0 -10 -11 -10h-456q-10 0 -10 10z" />
<glyph unicode="&#xcd;" horiz-adv-x="1099" d="M266 12v201q0 10 10 10h117v991h-117q-10 0 -10 11v200q0 11 10 11h457q10 0 10 -11v-200q0 -11 -10 -11h-119v-991h119q10 0 10 -10v-201q0 -10 -10 -10h-457q-10 0 -10 10zM452.5 1548q-0.5 2 2.5 4l286 283q12 6 19 6h139q8 0 2 -6l-330 -283q-6 -6 -18 -6h-96 q-4 0 -4.5 2z" />
<glyph unicode="&#xce;" horiz-adv-x="1075" d="M252.5 1606.5q-1.5 2.5 1.5 5.5l182 278q8 8 17 8h127q8 0 16 -8l188 -278q3 -3 1.5 -5.5t-5.5 -2.5h-84q-8 0 -16 8l-158 200q-6 6 -12 0l-152 -200q-8 -8 -16 -8h-84q-4 0 -5.5 2.5zM268 12v201q0 10 11 10h116v991h-116q-11 0 -11 11v200q0 11 11 11h456q10 0 10 -11 v-200q0 -11 -10 -11h-119v-991h119q10 0 10 -10v-201q0 -10 -10 -10h-456q-11 0 -11 10z" />
<glyph unicode="&#xcf;" horiz-adv-x="1150" d="M268 1692q0 39 28.5 66.5t68.5 27.5q39 0 66.5 -27.5t27.5 -66.5q0 -38 -28 -66.5t-66 -28.5q-40 0 -68.5 28.5t-28.5 66.5zM326 12v201q0 10 10 10h117v991h-117q-10 0 -10 11v200q0 11 10 11h457q10 0 10 -11v-200q0 -11 -10 -11h-119v-991h119q10 0 10 -10v-201 q0 -10 -10 -10h-457q-10 0 -10 10zM692 1692q0 39 27.5 66.5t66.5 27.5q40 0 68.5 -27.5t28.5 -66.5q0 -38 -28.5 -66.5t-68.5 -28.5q-38 0 -66 28.5t-28 66.5z" />
<glyph unicode="&#xd0;" horiz-adv-x="1406" d="M199 16v1414q0 10 10 10h854q10 0 10 -10v-1414q0 -10 -10 -10h-854q-10 0 -10 10zM371 162h530v1122h-530v-1122z" />
<glyph unicode="&#xd1;" horiz-adv-x="1593" d="M287 10v1413q0 11 10 11h229q12 0 17 -9l538 -1040q4 -12 4 0v1038q0 4 4 7.5t7 3.5h200q11 0 11 -11v-1413q0 -3 -3.5 -6.5t-7.5 -3.5h-231q-11 0 -14 10l-539 1037q-2 5 -5 1l-1 -4v-1034q0 -10 -10 -10h-199q-10 0 -10 10zM469 1573q2 119 54 191.5t145 72.5 q41 0 73 -19.5t52 -47t38 -55t40 -47t49 -19.5q42 0 69.5 42t28.5 124q0 10 10 10h72q10 0 10 -10q-2 -119 -54 -192t-145 -73q-34 0 -62.5 14t-46.5 35t-35.5 45.5t-31.5 45.5t-33.5 35t-42.5 14q-42 0 -69.5 -42t-28.5 -124q0 -10 -10 -10h-72q-10 0 -10 10z" />
<glyph unicode="&#xd2;" horiz-adv-x="1736" d="M205 719q0 344 186 536q188 197 477 197q290 0 478 -197q186 -192 186 -536t-186 -539q-188 -194 -478 -194q-289 0 -477 194q-186 195 -186 539zM426 719q0 -253 117 -385q120 -135 325 -135q209 0 326 135q119 131 119 385t-119 385q-117 135 -326 135 q-205 0 -325 -135q-117 -132 -117 -385zM483 1831q-6 6 2 6h140q6 0 18 -6l287 -283q5 -2 2 -5l-4 -1h-97q-12 0 -18 6z" />
<glyph unicode="&#xd3;" horiz-adv-x="1736" d="M205 719q0 344 186 536q188 197 477 197q290 0 478 -197q186 -192 186 -536t-186 -539q-188 -194 -478 -194q-289 0 -477 194q-186 195 -186 539zM426 719q0 -253 117 -385q120 -135 325 -135q209 0 326 135q119 131 119 385t-119 385q-117 135 -326 135 q-205 0 -325 -135q-117 -132 -117 -385zM816.5 1548q-0.5 2 2.5 4l287 283q12 6 18 6h140q8 0 2 -6l-330 -283q-6 -6 -18 -6h-97q-4 0 -4.5 2z" />
<glyph unicode="&#xd4;" horiz-adv-x="1736" d="M205 719q0 344 186 536q188 197 477 197q290 0 478 -197q186 -192 186 -536t-186 -539q-188 -194 -478 -194q-289 0 -477 194q-186 195 -186 539zM426 719q0 -253 117 -385q120 -135 325 -135q209 0 326 135q119 131 119 385t-119 385q-117 135 -326 135 q-205 0 -325 -135q-117 -132 -117 -385zM629 1606.5q-1 2.5 2 5.5l182 278q8 8 16 8h127q9 0 17 -8l188 -278q3 -3 2 -5.5t-6 -2.5h-84q-8 0 -16 8l-158 200q-6 6 -12 0l-152 -200q-8 -8 -16 -8h-84q-5 0 -6 2.5z" />
<glyph unicode="&#xd5;" horiz-adv-x="1736" d="M205 719q0 344 186 536q188 197 477 197q290 0 478 -197q186 -192 186 -536t-186 -539q-188 -194 -478 -194q-289 0 -477 194q-186 195 -186 539zM426 719q0 -253 117 -385q120 -135 325 -135q209 0 326 135q119 131 119 385t-119 385q-117 135 -326 135 q-205 0 -325 -135q-117 -132 -117 -385zM559 1573q2 119 54 191.5t145 72.5q41 0 73 -19.5t52 -47t38 -55t40 -47t49 -19.5q42 0 69.5 42t28.5 124q0 10 10 10h72q10 0 10 -10q-2 -119 -54 -192t-145 -73q-41 0 -72.5 19.5t-51.5 47t-38 55.5t-40 47.5t-49 19.5 q-42 0 -70 -42t-29 -124q0 -10 -10 -10h-72q-10 0 -10 10z" />
<glyph unicode="&#xd6;" horiz-adv-x="1736" d="M205 719q0 344 186 536q188 197 477 197q290 0 478 -197q186 -192 186 -536t-186 -539q-188 -194 -478 -194q-289 0 -477 194q-186 195 -186 539zM426 719q0 -253 117 -385q120 -135 325 -135q209 0 326 135q119 131 119 385t-119 385q-117 135 -326 135 q-205 0 -325 -135q-117 -132 -117 -385zM575 1692q0 39 28.5 66.5t68.5 27.5q39 0 66.5 -27.5t27.5 -66.5q0 -38 -28 -66.5t-66 -28.5q-40 0 -68.5 28.5t-28.5 66.5zM999 1692q0 39 28 66.5t67 27.5q40 0 68 -27t28 -67q0 -38 -28 -66.5t-68 -28.5q-38 0 -66.5 28.5 t-28.5 66.5z" />
<glyph unicode="&#xd7;" horiz-adv-x="1134" d="M135 328q0 16 12 26l295 295v4l-295 295q-12 10 -12 26t12 27l78 78q10 13 27 13t27 -13l294 -295h5l294 295q10 13 27 13t27 -13l78 -78q12 -11 12 -27t-12 -26l-295 -295v-4l295 -295q12 -11 12 -26.5t-12 -26.5l-78 -78q-9 -12 -27 -12t-27 12l-294 295h-5l-294 -295 q-9 -12 -27 -12t-27 12l-78 78q-12 11 -12 27z" />
<glyph unicode="&#xd8;" horiz-adv-x="1263" d="M199 16v1414q0 10 10 10h854q10 0 10 -10v-1414q0 -10 -10 -10h-854q-10 0 -10 10zM371 162h530v1122h-530v-1122z" />
<glyph unicode="&#xd9;" horiz-adv-x="1497" d="M256 465v954q0 11 10 11h221q11 0 11 -11v-966q0 -120 55 -188t195 -68q74 0 124.5 19t77.5 56t38 80t11 101v966q0 11 11 11h221q10 0 10 -11v-1413q0 -10 -10 -10h-180q-10 0 -13 10l-14 123q-4 11 -8 2q-49 -77 -119.5 -117.5t-148.5 -40.5q-217 0 -351 123 q-141 132 -141 369zM362 1831q-6 6 3 6h139q6 0 18 -6l287 -283q5 -2 2 -5l-4 -1h-96q-13 0 -19 6z" />
<glyph unicode="&#xda;" horiz-adv-x="1497" d="M256 465v954q0 11 10 11h221q11 0 11 -11v-966q0 -120 55 -188t195 -68q74 0 124.5 19t77.5 56t38 80t11 101v966q0 11 11 11h221q10 0 10 -11v-1413q0 -10 -10 -10h-180q-10 0 -13 10l-14 123q-4 11 -8 2q-50 -78 -121 -123t-147 -45q-206 0 -351 133q-141 132 -141 369 zM702.5 1548q-0.5 2 2.5 4l286 283q12 6 19 6h139q8 0 2 -6l-330 -283q-6 -6 -18 -6h-96q-4 0 -4.5 2z" />
<glyph unicode="&#xdb;" horiz-adv-x="1497" d="M256 465v954q0 11 10 11h221q11 0 11 -11v-966q0 -120 55 -188t195 -68q74 0 124.5 19t77.5 56t38 80t11 101v966q0 11 11 11h221q10 0 10 -11v-1413q0 -10 -10 -10h-180q-10 0 -13 10l-14 123q-4 11 -8 2q-50 -78 -121 -123t-147 -45q-206 0 -351 133q-141 132 -141 369 zM490.5 1606.5q-1.5 2.5 1.5 5.5l182 278q8 8 16 8h127q9 0 17 -8l188 -278q3 -3 1.5 -5.5t-5.5 -2.5h-84q-8 0 -16 8l-158 200q-6 6 -12 0l-152 -200q-8 -8 -16 -8h-84q-4 0 -5.5 2.5z" />
<glyph unicode="&#xdc;" horiz-adv-x="1497" d="M256 465v954q0 11 10 11h221q11 0 11 -11v-966q0 -120 55 -188t195 -68q74 0 124.5 19t77.5 56t38 80t11 101v966q0 11 11 11h221q10 0 10 -11v-1413q0 -10 -10 -10h-180q-10 0 -13 10l-14 123q-4 11 -8 2q-50 -78 -121 -123t-147 -45q-206 0 -351 133q-141 132 -141 369 zM438 1692q0 39 28.5 66.5t68.5 27.5q39 0 66.5 -27.5t27.5 -66.5q0 -38 -28 -66.5t-66 -28.5q-40 0 -68.5 28.5t-28.5 66.5zM862 1692q0 39 27.5 66.5t66.5 27.5q40 0 68.5 -27.5t28.5 -66.5q0 -38 -28.5 -66.5t-68.5 -28.5q-38 0 -66 28.5t-28 66.5z" />
<glyph unicode="&#xdd;" d="M77 1431q2 3 5 3h199q9 0 14 -9l278 -579l279 579q4 9 14 9h199q4 0 6 -3t0 -6l-387 -800v-615q0 -10 -10 -10h-201q-3 0 -6.5 3.5t-3.5 6.5v615l-385 800q-3 3 -1 6zM523.5 1548q-0.5 2 2.5 4l287 283q12 6 18 6h140q8 0 2 -6l-330 -283q-6 -6 -18 -6h-97q-4 0 -4.5 2z " />
<glyph unicode="&#xde;" horiz-adv-x="1196" d="M199 16v1414q0 10 10 10h854q10 0 10 -10v-1414q0 -10 -10 -10h-854q-10 0 -10 10zM371 162h530v1122h-530v-1122z" />
<glyph unicode="&#xdf;" horiz-adv-x="1134" d="M117 16v1414q0 10 10 10h854q10 0 10 -10v-1414q0 -10 -10 -10h-854q-10 0 -10 10zM289 162h530v1122h-530v-1122z" />
<glyph unicode="&#xe0;" horiz-adv-x="1060" d="M96 16v1414q0 10 10 10h855q10 0 10 -10v-1414q0 -10 -10 -10h-855q-10 0 -10 10zM268 162h531v1122h-531v-1122z" />
<glyph unicode="&#xe1;" horiz-adv-x="1060" d="M96 16v1414q0 10 10 10h855q10 0 10 -10v-1414q0 -10 -10 -10h-855q-10 0 -10 10zM268 162h531v1122h-531v-1122z" />
<glyph unicode="&#xe2;" horiz-adv-x="1060" d="M117 16v1414q0 10 10 10h854q10 0 10 -10v-1414q0 -10 -10 -10h-854q-10 0 -10 10zM289 162h530v1122h-530v-1122z" />
<glyph unicode="&#xe3;" horiz-adv-x="1060" d="M117 16v1414q0 10 10 10h854q10 0 10 -10v-1414q0 -10 -10 -10h-854q-10 0 -10 10zM289 162h530v1122h-530v-1122z" />
<glyph unicode="&#xe4;" horiz-adv-x="1060" d="M117 16v1414q0 10 10 10h854q10 0 10 -10v-1414q0 -10 -10 -10h-854q-10 0 -10 10zM289 162h530v1122h-530v-1122z" />
<glyph unicode="&#xe5;" horiz-adv-x="1060" d="M117 16v1414q0 10 10 10h854q10 0 10 -10v-1414q0 -10 -10 -10h-854q-10 0 -10 10zM289 162h530v1122h-530v-1122z" />
<glyph unicode="&#xe6;" horiz-adv-x="1169" d="M117 16v1414q0 10 10 10h854q10 0 10 -10v-1414q0 -10 -10 -10h-854q-10 0 -10 10zM289 162h530v1122h-530v-1122z" />
<glyph unicode="&#xe7;" horiz-adv-x="1101" d="M117 16v1414q0 10 10 10h854q10 0 10 -10v-1414q0 -10 -10 -10h-854q-10 0 -10 10zM289 162h530v1122h-530v-1122z" />
<glyph unicode="&#xe8;" d="M117 16v1414q0 10 10 10h854q10 0 10 -10v-1414q0 -10 -10 -10h-854q-10 0 -10 10zM289 162h530v1122h-530v-1122z" />
<glyph unicode="&#xe9;" d="M117 16v1414q0 10 10 10h854q10 0 10 -10v-1414q0 -10 -10 -10h-854q-10 0 -10 10zM289 162h530v1122h-530v-1122z" />
<glyph unicode="&#xea;" d="M117 16v1414q0 10 10 10h854q10 0 10 -10v-1414q0 -10 -10 -10h-854q-10 0 -10 10zM289 162h530v1122h-530v-1122z" />
<glyph unicode="&#xeb;" d="M117 16v1414q0 10 10 10h854q10 0 10 -10v-1414q0 -10 -10 -10h-854q-10 0 -10 10zM289 162h530v1122h-530v-1122z" />
<glyph unicode="&#xec;" horiz-adv-x="1179" d="M117 16v1414q0 10 10 10h854q10 0 10 -10v-1414q0 -10 -10 -10h-854q-10 0 -10 10zM289 162h530v1122h-530v-1122z" />
<glyph unicode="&#xed;" horiz-adv-x="1155" d="M117 16v1414q0 10 10 10h854q10 0 10 -10v-1414q0 -10 -10 -10h-854q-10 0 -10 10zM289 162h530v1122h-530v-1122z" />
<glyph unicode="&#xee;" horiz-adv-x="1128" d="M117 16v1414q0 10 10 10h854q10 0 10 -10v-1414q0 -10 -10 -10h-854q-10 0 -10 10zM289 162h530v1122h-530v-1122z" />
<glyph unicode="&#xef;" horiz-adv-x="1118" d="M117 16v1414q0 10 10 10h854q10 0 10 -10v-1414q0 -10 -10 -10h-854q-10 0 -10 10zM289 162h530v1122h-530v-1122z" />
<glyph unicode="&#xf0;" horiz-adv-x="1187" d="M117 16v1414q0 10 10 10h854q10 0 10 -10v-1414q0 -10 -10 -10h-854q-10 0 -10 10zM289 162h530v1122h-530v-1122z" />
<glyph unicode="&#xf1;" horiz-adv-x="1181" d="M117 16v1414q0 10 10 10h854q10 0 10 -10v-1414q0 -10 -10 -10h-854q-10 0 -10 10zM289 162h530v1122h-530v-1122z" />
<glyph unicode="&#xf2;" horiz-adv-x="1212" d="M117 16v1414q0 10 10 10h854q10 0 10 -10v-1414q0 -10 -10 -10h-854q-10 0 -10 10zM289 162h530v1122h-530v-1122z" />
<glyph unicode="&#xf3;" horiz-adv-x="1212" d="M117 16v1414q0 10 10 10h854q10 0 10 -10v-1414q0 -10 -10 -10h-854q-10 0 -10 10zM289 162h530v1122h-530v-1122z" />
<glyph unicode="&#xf4;" horiz-adv-x="1112" d="M117 16v1414q0 10 10 10h854q10 0 10 -10v-1414q0 -10 -10 -10h-854q-10 0 -10 10zM289 162h530v1122h-530v-1122z" />
<glyph unicode="&#xf5;" horiz-adv-x="1212" d="M117 16v1414q0 10 10 10h854q10 0 10 -10v-1414q0 -10 -10 -10h-854q-10 0 -10 10zM289 162h530v1122h-530v-1122z" />
<glyph unicode="&#xf6;" horiz-adv-x="1212" d="M117 16v1414q0 10 10 10h854q10 0 10 -10v-1414q0 -10 -10 -10h-854q-10 0 -10 10zM289 162h530v1122h-530v-1122z" />
<glyph unicode="&#xf7;" horiz-adv-x="1097" d="M96 551v192q0 9 6 15t15 6h860q20 0 20 -21v-192q0 -21 -20 -21h-860q-9 0 -15 6t-6 15zM387 260q0 68 45.5 114t114.5 46q67 0 113.5 -46t46.5 -114q0 -69 -46 -114.5t-114 -45.5q-69 0 -114.5 45.5t-45.5 114.5zM387 1026q0 68 45.5 114t114.5 46q67 0 113.5 -46 t46.5 -114q0 -69 -46 -114.5t-114 -45.5q-69 0 -114.5 45.5t-45.5 114.5z" />
<glyph unicode="&#xf8;" horiz-adv-x="1212" d="M117 16v1414q0 10 10 10h854q10 0 10 -10v-1414q0 -10 -10 -10h-854q-10 0 -10 10zM289 162h530v1122h-530v-1122z" />
<glyph unicode="&#xf9;" horiz-adv-x="1181" d="M117 16v1414q0 10 10 10h854q10 0 10 -10v-1414q0 -10 -10 -10h-854q-10 0 -10 10zM289 162h530v1122h-530v-1122z" />
<glyph unicode="&#xfa;" horiz-adv-x="1181" d="M117 16v1414q0 10 10 10h854q10 0 10 -10v-1414q0 -10 -10 -10h-854q-10 0 -10 10zM289 162h530v1122h-530v-1122z" />
<glyph unicode="&#xfb;" horiz-adv-x="1181" d="M117 16v1414q0 10 10 10h854q10 0 10 -10v-1414q0 -10 -10 -10h-854q-10 0 -10 10zM289 162h530v1122h-530v-1122z" />
<glyph unicode="&#xfc;" horiz-adv-x="1181" d="M117 16v1414q0 10 10 10h854q10 0 10 -10v-1414q0 -10 -10 -10h-854q-10 0 -10 10zM289 162h530v1122h-530v-1122z" />
<glyph unicode="&#xfd;" horiz-adv-x="942" d="M117 16v1414q0 10 10 10h854q10 0 10 -10v-1414q0 -10 -10 -10h-854q-10 0 -10 10zM289 162h530v1122h-530v-1122z" />
<glyph unicode="&#xfe;" horiz-adv-x="1230" d="M117 16v1414q0 10 10 10h854q10 0 10 -10v-1414q0 -10 -10 -10h-854q-10 0 -10 10zM289 162h530v1122h-530v-1122z" />
<glyph unicode="&#xff;" horiz-adv-x="942" d="M117 16v1414q0 10 10 10h854q10 0 10 -10v-1414q0 -10 -10 -10h-854q-10 0 -10 10zM289 162h530v1122h-530v-1122z" />
<glyph unicode="&#x152;" horiz-adv-x="1253" d="M199 16v1414q0 10 10 10h854q10 0 10 -10v-1414q0 -10 -10 -10h-854q-10 0 -10 10zM371 162h530v1122h-530v-1122z" />
<glyph unicode="&#x153;" horiz-adv-x="1173" d="M117 16v1414q0 10 10 10h854q10 0 10 -10v-1414q0 -10 -10 -10h-854q-10 0 -10 10zM289 162h530v1122h-530v-1122z" />
<glyph unicode="&#x178;" d="M77 1431q2 3 5 3h199q9 0 14 -9l278 -579l279 579q4 9 14 9h199q4 0 6 -3t0 -6l-387 -800v-615q0 -10 -10 -10h-201q-3 0 -6.5 3.5t-3.5 6.5v615l-385 800q-3 3 -1 6zM276 1692q0 39 28.5 66.5t68.5 27.5q39 0 66.5 -27.5t27.5 -66.5q0 -38 -28 -66.5t-66 -28.5 q-40 0 -68.5 28.5t-28.5 66.5zM700 1692q0 39 28 66.5t67 27.5q40 0 68 -27t28 -67q0 -38 -28.5 -66.5t-67.5 -28.5q-38 0 -66.5 28.5t-28.5 66.5z" />
<glyph unicode="&#x2c6;" horiz-adv-x="798" d="M129.5 1211q-1.5 3 1.5 6l182 278q8 8 17 8h127q8 0 16 -8l189 -278q3 -3 1.5 -6t-6.5 -3h-84q-7 0 -16 9l-158 200q-6 6 -12 0l-151 -200q-9 -9 -17 -9h-84q-4 0 -5.5 3z" />
<glyph unicode="&#x2dc;" horiz-adv-x="796" d="M70 1141q0 159 50 232t148 73q34 0 62.5 -14t46.5 -35t35.5 -45.5t31.5 -45.5t33.5 -35t42.5 -14q13 0 22.5 4t15.5 14t10 21t6 33t2.5 41t1.5 53q0 11 10 11h112q11 0 11 -11q0 -305 -199 -305q-34 0 -62.5 14t-46.5 35t-35.5 45.5t-31.5 45.5t-33.5 35t-42.5 14 q-37 0 -46 -34t-11 -132q0 -11 -10 -11h-113q-10 0 -10 11z" />
<glyph unicode="&#x2000;" horiz-adv-x="972" />
<glyph unicode="&#x2001;" horiz-adv-x="1944" />
<glyph unicode="&#x2002;" horiz-adv-x="972" />
<glyph unicode="&#x2003;" horiz-adv-x="1944" />
<glyph unicode="&#x2004;" horiz-adv-x="648" />
<glyph unicode="&#x2005;" horiz-adv-x="486" />
<glyph unicode="&#x2006;" horiz-adv-x="324" />
<glyph unicode="&#x2007;" horiz-adv-x="324" />
<glyph unicode="&#x2008;" horiz-adv-x="243" />
<glyph unicode="&#x2009;" horiz-adv-x="388" />
<glyph unicode="&#x200a;" horiz-adv-x="108" />
<glyph unicode="&#x2010;" horiz-adv-x="985" d="M166 571v172q0 11 10 11h633q3 0 6.5 -4t3.5 -7v-172q0 -10 -10 -10h-633q-10 0 -10 10z" />
<glyph unicode="&#x2011;" horiz-adv-x="985" d="M166 571v172q0 11 10 11h633q3 0 6.5 -4t3.5 -7v-172q0 -10 -10 -10h-633q-10 0 -10 10z" />
<glyph unicode="&#x2012;" horiz-adv-x="985" d="M166 571v172q0 11 10 11h633q3 0 6.5 -4t3.5 -7v-172q0 -10 -10 -10h-633q-10 0 -10 10z" />
<glyph unicode="&#x2013;" horiz-adv-x="1148" d="M125 571v152q0 20 20 20h859q20 0 20 -20v-152q0 -20 -20 -20h-859q-20 0 -20 20z" />
<glyph unicode="&#x2014;" horiz-adv-x="1554" d="M127 580v151q0 21 20 21h1264q9 0 15 -6t6 -15v-151q0 -9 -6 -15t-15 -6h-1264q-20 0 -20 21z" />
<glyph unicode="&#x2018;" horiz-adv-x="612" d="M154 1151q0 89 43 168q47 82 106 125v2h2q12 4 17 4q8 0 16 -4l2 -2l59 -47h2q12 -12 9 -25q0 -12 -13 -16q-32 -25 -59 -60t-39 -69q47 0 79 -33.5t32 -83.5q0 -51 -35 -86t-86 -35q-56 0 -96 43q-39 45 -39 119z" />
<glyph unicode="&#x2019;" horiz-adv-x="612" d="M182 1055q-3 9 2 14q49 35 87 90t44 103q-15 -5 -30 -5q-43 0 -73 31.5t-30 77.5q0 47 33 81t80 34q58 0 96.5 -42.5t38.5 -119.5q0 -92 -46 -177t-120 -141q-7 -3 -16 3z" />
<glyph unicode="&#x201a;" horiz-adv-x="612" d="M186 -2q-4 8 2 14q49 35 86 89t43 102q-12 -4 -30 -4q-43 0 -72 31t-29 75q0 47 32.5 81t78.5 34q58 0 95.5 -42.5t37.5 -117.5q0 -92 -45 -175t-117 -140q-10 -3 -16 2z" />
<glyph unicode="&#x201c;" horiz-adv-x="968" d="M195 1161q0 93 44 176t115 136q3 3 9.5 3t9.5 -3l61 -50q6 -6 0 -14q-49 -32 -85 -85t-42 -103q1 0 11 2t16 2q45 0 74.5 -31.5t29.5 -77.5q0 -47 -33.5 -81t-80.5 -34q-55 0 -92 43t-37 117zM532 1161q0 92 44.5 175.5t115.5 136.5q10 7 21 0l59 -50q8 -6 0 -14 q-50 -32 -85.5 -85.5t-39.5 -102.5q1 0 12 2t15 2q44 0 74 -31.5t30 -77.5q0 -47 -34 -81t-80 -34q-56 0 -94 43t-38 117z" />
<glyph unicode="&#x201d;" horiz-adv-x="968" d="M195 1366q0 48 31.5 81.5t78.5 33.5q58 0 95.5 -42t37.5 -116q0 -92 -43.5 -174.5t-115.5 -138.5q-11 -4 -21 0l-59 51q-7 7 0 14q49 36 85 89.5t40 99.5q-4 -4 -27 -4q-44 0 -73 30.5t-29 75.5zM532 1366q0 47 34 81t81 34q55 0 93 -42t38 -116q0 -91 -45 -173.5 t-117 -139.5q-9 -4 -18 0l-61 51q-7 7 0 14q48 35 84 88.5t43 100.5q-4 -4 -29 -4q-44 0 -73.5 30.5t-29.5 75.5z" />
<glyph unicode="&#x201e;" horiz-adv-x="968" d="M193 309q0 48 31.5 81.5t78.5 33.5q58 0 95.5 -42t37.5 -116q0 -92 -44 -174.5t-116 -138.5q-10 -3 -20 0l-59 51q-7 7 0 14q49 36 85 89.5t40 99.5q-4 -4 -27 -4q-44 0 -73 30.5t-29 75.5zM530 309q0 47 34 81t81 34q55 0 93 -42t38 -116q0 -91 -45 -173.5t-117 -139.5 q-3 -1 -9 -1t-9 1l-61 51q-7 7 0 14q48 35 84 88.5t43 100.5q-4 -4 -29 -4q-44 0 -73.5 30.5t-29.5 75.5z" />
<glyph unicode="&#x2022;" horiz-adv-x="663" d="M152 676.5q0 73.5 51 124.5q55 55 129 55t125 -55q55 -51 55 -125t-55 -129q-51 -51 -125 -51t-129 51q-51 56 -51 129.5z" />
<glyph unicode="&#x2026;" horiz-adv-x="1712" d="M190 100q0 50 35 84.5t84 34.5q51 0 86 -34.5t35 -84.5t-35 -85t-86 -35q-49 0 -84 35t-35 85zM735 100q0 50 34.5 84.5t84.5 34.5q51 0 86 -34.5t35 -84.5t-35 -85t-86 -35q-49 0 -84 35t-35 85zM1282 100q0 50 35 84.5t84 34.5q51 0 86 -34.5t35 -84.5t-35 -85t-86 -35 q-49 0 -84 35t-35 85z" />
<glyph unicode="&#x202f;" horiz-adv-x="388" />
<glyph unicode="&#x2039;" horiz-adv-x="780" d="M98 575v107q0 8 8 16l551 396q3 3 6 1.5t3 -5.5v-185q0 -7 -9 -16l-342 -254q-6 -6 0 -12l342 -254q9 -9 9 -17v-184q0 -4 -3 -5.5t-6 1.5l-551 395q-8 8 -8 16z" />
<glyph unicode="&#x203a;" horiz-adv-x="780" d="M115 190v185q0 8 8 16l342 254q6 6 0 12l-342 254q-8 8 -8 17v184q0 4 2.5 5.5t5.5 -1.5l551 -395q8 -8 8 -16v-107q0 -8 -8 -16l-551 -396q-3 -3 -5.5 -1.5t-2.5 5.5z" />
<glyph unicode="&#x205f;" horiz-adv-x="486" />
<glyph unicode="&#x20ac;" horiz-adv-x="1286" d="M117 16v1414q0 10 10 10h854q10 0 10 -10v-1414q0 -10 -10 -10h-854q-10 0 -10 10zM289 162h530v1122h-530v-1122z" />
<glyph unicode="&#x2122;" horiz-adv-x="1683" d="M98 1323v86q0 7 5.5 12.5t13.5 5.5h553q6 0 11 -5.5t5 -12.5v-86q0 -7 -5 -12.5t-11 -5.5h-213v-703q0 -7 -5.5 -12.5t-13.5 -5.5h-92q-6 0 -11 5.5t-5 12.5v703h-213q-8 0 -13.5 5.5t-5.5 12.5zM844 602v807q0 7 5 12.5t13 5.5h115q14 0 20 -12l205 -379l205 379 q6 12 20 12h115q8 0 13.5 -5.5t5.5 -12.5v-807q0 -7 -5.5 -12.5t-13.5 -5.5h-92q-8 0 -13 5t-5 13v582l-175 -320h-110l-174 320v-582q0 -7 -5.5 -12.5t-13.5 -5.5h-92q-8 0 -13 5t-5 13z" />
<glyph unicode="&#x25fc;" horiz-adv-x="1433" d="M0 0v1434h1434v-1434h-1434z" />
<glyph unicode="&#xfb01;" horiz-adv-x="1114" d="M117 16v1414q0 10 10 10h854q10 0 10 -10v-1414q0 -10 -10 -10h-854q-10 0 -10 10zM289 162h530v1122h-530v-1122z" />
<glyph unicode="&#xfb02;" horiz-adv-x="1206" d="M117 16v1414q0 10 10 10h854q10 0 10 -10v-1414q0 -10 -10 -10h-854q-10 0 -10 10zM289 162h530v1122h-530v-1122z" />
</font>
</defs>
</svg>
